<?xml version="1.0" encoding="UTF-8"?>
<svg width="2378px" height="461px" viewBox="0 0 2378 461" xmlns="http://www.w3.org/2000/svg" xmlns:xlink="http://www.w3.org/1999/xlink" version="1.1">
 <!-- Generated by Pixelmator Pro 1.8 -->
 <path id="圆角矩形" d="M2191 106.25 C2168.909 106.25 2151 124.159 2151 146.25 L2151 238.419 C2151 260.51 2168.909 278.419 2191 278.419 L2291 278.419 C2313.091 278.419 2331 260.51 2331 238.419 L2331 146.25 C2331 124.159 2313.091 106.25 2291 106.25 Z" fill="#000000" fill-opacity="1" stroke="none"/>
 <path id="语幕" d="M666.242 25.711 L682.844 26.688 682.844 43.289 682.844 60.867 716.047 60.867 748.273 60.867 749.25 43.289 749.25 26.688 765.852 25.711 781.477 25.711 782.453 43.289 782.453 59.891 841.047 59.891 898.664 60.867 898.664 69.656 898.664 79.422 840.07 79.422 780.5 79.422 777.57 85.281 C775.617 89.839 773.339 93.745 770.734 97 767.479 100.255 763.573 103.022 759.016 105.301 754.458 107.579 751.529 108.556 750.227 108.23 748.924 107.905 748.273 102.859 748.273 93.094 L748.273 79.422 715.07 79.422 680.891 79.422 677.961 86.258 C675.357 90.815 673.078 94.721 671.125 97.977 668.521 100.581 664.94 102.859 660.383 104.813 655.826 107.417 652.896 108.719 651.594 108.719 650.292 108.719 649.641 103.836 649.641 94.07 L649.641 79.422 591.047 79.422 532.453 78.445 531.477 69.656 531.477 60.867 590.07 60.867 649.641 60.867 649.641 44.266 C649.641 33.198 649.966 27.339 650.617 26.688 651.268 26.036 656.477 25.711 666.242 25.711 Z M603.742 98.953 L620.344 98.953 620.344 104.813 620.344 110.672 712.141 110.672 802.961 109.695 802.961 104.813 802.961 98.953 819.563 99.93 836.164 99.93 836.164 139.969 C836.815 166.662 836.49 182.937 835.188 188.797 833.885 193.354 832.258 197.911 830.305 202.469 828.352 207.026 825.422 211.095 821.516 214.676 817.609 218.257 813.866 220.535 810.285 221.512 806.704 222.488 804.589 222.651 803.938 222 803.286 222 802.961 218.745 802.961 212.234 L802.961 203.445 708.234 203.445 C645.734 203.445 614.159 204.096 613.508 205.398 612.857 206.701 610.904 208.979 607.648 212.234 604.393 215.49 601.138 217.768 597.883 219.07 594.628 221.023 592.023 222 590.07 222 L588.117 222 587.141 160.477 587.141 98.953 Z M712.141 129.227 L620.344 129.227 620.344 138.016 620.344 145.828 712.141 145.828 802.961 145.828 802.961 138.016 802.961 129.227 Z M712.141 165.359 C652.245 165.359 621.971 165.522 621.32 165.848 620.669 166.173 620.344 169.266 620.344 175.125 L620.344 183.914 712.141 183.914 802.961 183.914 802.961 175.125 802.961 165.359 Z M663.313 213.211 C663.964 213.211 669.172 214.187 678.938 216.141 688.703 218.094 693.911 219.396 694.563 220.047 695.214 220.698 695.214 221.674 694.563 222.977 694.563 223.628 692.609 227.208 688.703 233.719 L683.82 241.531 722.883 241.531 C747.622 241.531 759.992 240.88 759.992 239.578 759.992 238.276 761.945 236.648 765.852 234.695 L771.711 231.766 776.594 236.648 781.477 241.531 840.07 241.531 898.664 241.531 898.664 251.297 898.664 261.063 850.813 261.063 802.961 261.063 811.75 267.898 C817.609 272.456 823.469 276.362 829.328 279.617 835.188 282.872 841.047 285.639 846.906 287.918 852.766 290.197 859.927 292.313 868.391 294.266 876.203 296.219 884.016 297.846 891.828 299.148 899.641 299.799 903.547 300.776 903.547 302.078 903.547 303.38 902.245 310.216 899.641 322.586 897.036 335.607 895.409 342.117 894.758 342.117 894.758 342.117 892.154 341.466 886.945 340.164 881.737 338.211 874.576 334.956 865.461 330.398 855.044 325.19 846.906 320.633 841.047 316.727 834.536 312.82 831.118 310.867 830.793 310.867 830.467 310.867 830.305 323.562 830.305 348.953 830.305 373.693 829.654 388.341 828.352 392.898 827.049 397.456 825.422 401.687 823.469 405.594 821.516 409.5 819.074 412.918 816.145 415.848 813.215 418.777 810.122 420.893 806.867 422.195 803.612 423.497 801.008 424.148 799.055 424.148 L796.125 424.148 796.125 376.297 796.125 328.445 760.969 328.445 725.813 328.445 724.836 367.508 C724.836 394.201 724.185 409.174 722.883 412.43 721.581 415.685 720.279 418.94 718.977 422.195 717.023 425.451 715.07 428.217 713.117 430.496 711.164 432.775 707.583 435.216 702.375 437.82 697.818 440.424 694.888 441.727 693.586 441.727 692.284 441.727 691.633 422.847 691.633 385.086 L691.633 328.445 656.477 328.445 620.344 328.445 620.344 356.766 C620.344 374.995 620.018 386.062 619.367 389.969 618.716 393.224 617.74 397.13 616.438 401.688 614.484 405.594 611.88 409.5 608.625 413.406 604.719 417.313 601.138 420.242 597.883 422.195 594.628 423.497 592.023 424.148 590.07 424.148 L587.141 424.148 587.141 374.344 C587.141 341.14 586.815 324.539 586.164 324.539 585.513 324.539 582.583 325.516 577.375 327.469 572.167 329.422 564.68 331.701 554.914 334.305 L540.266 338.211 536.359 334.305 C535.708 333.654 535.057 332.84 534.406 331.863 533.755 330.887 533.43 330.398 533.43 330.398 534.081 330.398 540.266 327.143 551.984 320.633 563.703 315.424 573.469 309.891 581.281 304.031 589.094 299.474 595.767 294.917 601.301 290.359 606.835 285.802 613.182 279.943 620.344 272.781 L631.086 261.063 581.281 261.063 531.477 261.063 531.477 251.297 532.453 242.508 589.094 242.508 645.734 241.531 651.594 231.766 C656.151 225.255 659.081 220.698 660.383 218.094 662.336 214.839 663.313 213.211 663.313 213.211 Z M723.859 261.063 L671.125 261.063 661.359 270.828 C656.151 277.339 649.966 283.523 642.805 289.383 635.643 295.242 630.109 299.474 626.203 302.078 622.297 304.682 620.344 306.635 620.344 307.938 620.344 309.24 632.388 309.891 656.477 309.891 L691.633 309.891 691.633 291.336 691.633 272.781 708.234 273.758 724.836 273.758 724.836 291.336 724.836 309.891 760.969 309.891 796.125 309.891 796.125 305.984 796.125 302.078 807.844 302.078 818.586 302.078 808.82 293.289 C802.961 288.732 795.799 281.896 787.336 272.781 L775.617 261.063 Z M302.688 48.172 L433.547 48.172 433.547 57.938 433.547 66.727 359.328 67.703 285.109 67.703 285.109 97 285.109 125.32 317.336 126.297 C338.82 126.297 349.563 125.646 349.563 124.344 349.563 123.042 350.539 122.391 352.492 122.391 353.794 121.74 360.63 121.414 373 121.414 L391.555 122.391 391.555 154.617 C392.206 176.102 392.206 189.122 391.555 193.68 390.253 198.237 388.625 202.143 386.672 205.398 385.37 207.352 384.393 209.63 383.742 212.234 383.742 212.234 385.207 212.397 388.137 212.723 391.066 213.048 395.135 213.211 400.344 213.211 405.552 213.211 411.086 213.211 416.945 213.211 L451.125 213.211 451.125 222 451.125 231.766 303.664 231.766 156.203 231.766 156.203 222 156.203 213.211 199.172 213.211 243.117 213.211 243.117 179.031 242.141 144.852 210.891 143.875 179.641 143.875 179.641 135.086 179.641 126.297 210.891 126.297 242.141 125.32 243.117 96.023 243.117 66.727 207.961 66.727 173.781 66.727 172.805 56.961 172.805 48.172 Z M317.336 143.875 C295.851 143.875 285.109 144.201 285.109 144.852 284.458 146.805 284.133 155.919 284.133 172.195 L283.156 197.586 280.227 204.422 C278.924 207.026 277.622 209.63 276.32 212.234 276.32 212.234 279.901 212.397 287.063 212.723 294.224 213.048 303.013 213.211 313.43 213.211 L349.563 213.211 349.563 178.055 349.563 143.875 Z M89.797 56.961 L130.813 56.961 130.813 66.727 130.813 76.492 89.797 76.492 48.781 76.492 48.781 66.727 48.781 56.961 Z M73.195 176.102 C88.82 176.753 103.143 177.078 116.164 177.078 L133.742 177.078 133.742 251.297 C133.742 300.125 134.393 324.539 135.695 324.539 136.346 324.539 141.88 323.237 152.297 320.633 162.063 318.029 167.759 316.727 169.387 316.727 171.014 316.727 171.828 317.378 171.828 318.68 172.479 319.982 172.805 321.609 172.805 323.563 172.805 326.167 172.316 327.469 171.34 327.469 170.363 327.469 160.761 336.583 142.531 354.813 123.651 373.042 111.932 383.784 107.375 387.039 103.469 390.294 98.26 393.549 91.75 396.805 85.891 399.409 79.706 401.688 73.195 403.641 67.336 405.594 61.802 406.896 56.594 407.547 51.385 408.198 48.456 408.523 47.805 408.523 45.852 408.523 44.875 404.943 44.875 397.781 L44.875 387.039 49.758 387.039 C52.362 387.039 55.943 386.388 60.5 385.086 64.406 383.784 67.824 381.993 70.754 379.715 73.684 377.436 76.613 374.181 79.543 369.949 82.473 365.717 84.914 360.997 86.867 355.789 88.169 349.93 89.471 344.396 90.773 339.188 91.424 333.328 91.75 308.589 91.75 264.969 L91.75 197.586 81.984 196.609 C76.125 196.609 69.289 196.609 61.477 196.609 L48.781 196.609 48.781 185.867 48.781 176.102 Z M223.586 263.016 L245.07 263.992 245.07 266.922 245.07 269.852 303.664 269.852 362.258 269.852 362.258 265.945 362.258 263.016 382.766 263.016 403.273 263.016 403.273 324.539 403.273 386.063 399.367 393.875 C396.763 399.083 393.508 403.315 389.602 406.57 385.695 409.826 381.138 412.755 375.93 415.359 371.372 417.964 367.792 419.266 365.188 419.266 L362.258 420.242 362.258 406.57 362.258 392.898 301.711 392.898 241.164 392.898 238.234 397.781 C236.281 400.385 233.352 403.478 229.445 407.059 225.539 410.639 221.307 413.569 216.75 415.848 212.193 418.126 208.612 419.266 206.008 419.266 L203.078 420.242 203.078 342.117 203.078 263.016 Z M303.664 288.406 L245.07 288.406 245.07 331.375 245.07 374.344 303.664 374.344 362.258 374.344 362.258 331.375 362.258 288.406 Z" fill="#000000" fill-opacity="1" stroke="none"/>
 <path id="S" d="M2242.868 239.876 C2245.564 239.876 2248.232 239.505 2250.872 238.762 2253.513 238.02 2255.879 236.92 2257.969 235.462 2260.06 234.004 2261.738 232.216 2263.003 230.098 2264.268 227.98 2264.901 225.518 2264.901 222.712 2264.901 219.357 2264.034 216.372 2262.301 213.759 2260.568 211.146 2258.299 208.753 2255.493 206.58 2252.688 204.407 2249.483 202.358 2245.88 200.432 2242.277 198.507 2238.604 196.581 2234.864 194.656 2231.123 192.73 2227.451 190.709 2223.847 188.591 2220.244 186.473 2217.039 184.107 2214.234 181.494 2211.428 178.881 2209.159 175.965 2207.426 172.747 2205.693 169.529 2204.826 165.829 2204.826 161.648 2204.826 157.467 2205.61 153.589 2207.178 150.013 2208.746 146.437 2211.043 143.342 2214.069 140.729 2217.094 138.116 2220.822 136.067 2225.25 134.582 2229.679 133.096 2234.754 132.354 2240.475 132.354 2245.646 132.354 2250.267 132.904 2254.338 134.004 2258.409 135.104 2261.985 136.727 2265.066 138.873 2268.146 141.018 2270.76 143.659 2272.905 146.794 2275.051 149.93 2276.783 153.561 2278.104 157.687 L2268.697 161.978 C2267.596 158.622 2266.194 155.555 2264.488 152.777 2262.783 149.999 2260.747 147.62 2258.382 145.639 2256.016 143.659 2253.279 142.132 2250.171 141.059 2247.063 139.987 2243.556 139.45 2239.65 139.45 2236.184 139.45 2233.158 139.932 2230.573 140.894 2227.987 141.857 2225.828 143.122 2224.095 144.69 2222.362 146.258 2221.069 148.018 2220.216 149.971 2219.364 151.924 2218.937 153.919 2218.937 155.954 2218.937 158.815 2219.818 161.442 2221.578 163.835 2223.338 166.228 2225.677 168.483 2228.592 170.601 2231.508 172.719 2234.822 174.769 2238.536 176.749 2242.249 178.729 2246.031 180.737 2249.882 182.773 2253.733 184.808 2257.515 186.926 2261.229 189.127 2264.942 191.327 2268.257 193.734 2271.172 196.347 2274.088 198.961 2276.426 201.821 2278.186 204.929 2279.947 208.038 2280.827 211.517 2280.827 215.368 2280.827 219.714 2280.002 223.799 2278.351 227.622 2276.701 231.446 2274.225 234.774 2270.925 237.607 2267.624 240.44 2263.525 242.682 2258.629 244.333 2253.733 245.983 2248.039 246.808 2241.548 246.808 2236.266 246.808 2231.563 246.23 2227.437 245.075 2223.311 243.92 2219.666 242.242 2216.503 240.042 2213.34 237.841 2210.63 235.159 2208.375 231.996 2206.119 228.833 2204.276 225.216 2202.846 221.145 L2212.666 217.101 C2213.821 220.677 2215.375 223.868 2217.328 226.673 2219.281 229.479 2221.551 231.858 2224.136 233.811 2226.722 235.764 2229.596 237.263 2232.759 238.309 2235.923 239.354 2239.292 239.876 2242.868 239.876 Z" fill="#ffffff" fill-opacity="1" stroke="none"/>
 <path id="YUMU" d="M1855.001 109.919 L1900.843 109.919 1900.843 286.912 C1900.843 298.56 1902.83 309.49 1906.804 319.699 1910.778 329.909 1916.466 338.851 1923.866 346.526 1931.267 354.2 1940.209 360.265 1950.693 364.719 1961.177 369.172 1972.859 371.399 1985.742 371.399 1998.761 371.399 2010.478 369.172 2020.894 364.719 2031.309 360.265 2040.182 354.2 2047.515 346.526 2054.846 338.851 2060.465 329.909 2064.371 319.699 2068.277 309.49 2070.229 298.56 2070.229 286.912 L2070.229 109.919 2090.375 109.919 2090.375 286.912 C2090.375 300.89 2088.114 314.046 2083.591 326.38 2079.069 338.714 2071.977 349.507 2062.315 358.757 2052.654 368.008 2040.286 375.339 2025.211 380.753 2010.136 386.166 1992.046 388.873 1970.941 388.873 1952.166 388.873 1935.549 386.166 1921.091 380.753 1906.633 375.339 1894.505 367.973 1884.706 358.654 1874.907 349.335 1867.507 338.406 1862.505 325.866 1857.502 313.327 1855.001 299.931 1855.001 285.678 Z M1509.313 109.919 L1556.182 109.919 1662.254 318.98 1664.515 318.98 1768.532 109.919 1814.579 109.919 1814.579 382.5 1768.532 382.5 1768.532 159.049 1767.093 159.049 1655.265 382.5 1645.809 382.5 1532.747 160.899 1529.664 160.899 1529.664 382.5 1509.313 382.5 Z M1233.722 109.919 L1279.563 109.919 1279.563 286.912 C1279.563 298.56 1281.551 309.49 1285.525 319.699 1289.499 329.909 1295.187 338.851 1302.587 346.526 1309.987 354.2 1318.929 360.265 1329.413 364.719 1339.897 369.172 1351.58 371.399 1364.462 371.399 1377.482 371.399 1389.199 369.172 1399.614 364.719 1410.03 360.265 1418.903 354.2 1426.235 346.526 1433.567 338.851 1439.186 329.909 1443.092 319.699 1446.997 309.49 1448.95 298.56 1448.95 286.912 L1448.95 109.919 1469.096 109.919 1469.096 286.912 C1469.096 300.89 1466.834 314.046 1462.312 326.38 1457.79 338.714 1450.698 349.507 1441.036 358.757 1431.374 368.008 1419.006 375.339 1403.931 380.753 1388.856 386.166 1370.767 388.873 1349.662 388.873 1330.886 388.873 1314.27 386.166 1299.812 380.753 1285.354 375.339 1273.225 367.973 1263.427 358.654 1253.628 349.335 1246.228 338.406 1241.225 325.866 1236.223 313.327 1233.722 299.931 1233.722 285.678 Z M1015.69 109.919 L1110.251 248.06 1204.4 109.919 1229.274 109.919 1123.613 264.71 1123.613 382.5 1077.771 382.5 1077.771 269.027 968.821 109.919 Z" fill="#000000" fill-opacity="1" stroke="none"/>
 <path id=".cn" d="M2269.501 290.914 L2274.344 290.914 2274.344 308.197 C2279.521 302.408 2284.893 298.08 2290.459 295.214 2296.025 292.347 2301.675 290.914 2307.409 290.914 2310.415 290.914 2313.212 291.582 2315.8 292.917 2318.388 294.253 2320.657 296.09 2322.605 298.428 2324.553 300.766 2326.084 303.508 2327.197 306.653 2328.311 309.798 2328.867 313.151 2328.867 316.714 L2328.867 378 2311.917 378 2311.917 319.636 C2311.917 316.797 2311.583 314.306 2310.916 312.163 2310.248 310.02 2309.301 308.225 2308.077 306.778 2306.852 305.331 2305.419 304.231 2303.777 303.48 2302.135 302.728 2300.312 302.353 2298.308 302.353 2296.526 302.353 2294.634 302.659 2292.63 303.271 2290.626 303.883 2288.58 304.732 2286.493 305.818 2284.406 306.903 2282.332 308.197 2280.272 309.7 2278.213 311.203 2276.237 312.873 2274.344 314.71 L2274.344 378 2257.311 378 2257.311 295.673 Z M2215.646 316.547 C2215.034 314.32 2214.199 312.066 2213.142 309.784 2212.084 307.501 2210.734 305.428 2209.092 303.563 2207.45 301.698 2205.516 300.182 2203.289 299.013 2201.063 297.844 2198.446 297.259 2195.44 297.259 2191.6 297.259 2188.148 298.039 2185.087 299.597 2182.025 301.156 2179.437 303.271 2177.322 305.943 2175.207 308.615 2173.592 311.732 2172.479 315.294 2171.366 318.857 2170.809 322.642 2170.809 326.65 2170.809 332.105 2171.519 337.268 2172.938 342.138 2174.358 347.009 2176.362 351.281 2178.95 354.955 2181.538 358.629 2184.656 361.537 2188.302 363.68 2191.948 365.823 2196.025 366.895 2200.534 366.895 2204.486 366.895 2207.923 366.269 2210.845 365.016 2213.768 363.764 2216.301 362.08 2218.444 359.965 2220.587 357.85 2222.438 355.386 2223.996 352.575 2225.555 349.764 2226.946 346.8 2228.171 343.683 L2233.264 345.771 C2231.817 351.114 2229.869 355.901 2227.419 360.132 2224.97 364.362 2222.09 367.939 2218.778 370.861 2215.466 373.783 2211.736 376.01 2207.589 377.541 2203.442 379.072 2198.947 379.837 2194.104 379.837 2188.482 379.837 2183.222 378.738 2178.324 376.539 2173.425 374.34 2169.167 371.32 2165.549 367.479 2161.931 363.639 2159.064 359.158 2156.949 354.037 2154.833 348.915 2153.776 343.433 2153.776 337.588 2153.776 333.302 2154.305 329.169 2155.362 325.189 2156.42 321.209 2157.909 317.493 2159.829 314.042 2161.75 310.591 2164.06 307.446 2166.76 304.607 2169.459 301.768 2172.451 299.333 2175.735 297.301 2179.02 295.269 2182.54 293.697 2186.298 292.583 2190.055 291.47 2193.965 290.914 2198.029 290.914 2201.424 290.914 2204.681 291.303 2207.798 292.083 2210.915 292.862 2213.782 293.961 2216.398 295.381 2219.014 296.8 2221.324 298.553 2223.328 300.641 2225.332 302.728 2226.891 305.052 2228.004 307.613 Z M2126.389 362.971 C2127.614 362.971 2128.783 363.207 2129.896 363.68 2131.009 364.154 2131.983 364.78 2132.818 365.559 2133.653 366.338 2134.307 367.271 2134.781 368.356 2135.254 369.442 2135.49 370.569 2135.49 371.738 2135.49 373.018 2135.254 374.187 2134.781 375.245 2134.307 376.302 2133.653 377.235 2132.818 378.042 2131.983 378.849 2131.009 379.475 2129.896 379.92 2128.783 380.366 2127.614 380.588 2126.389 380.588 2125.109 380.588 2123.912 380.366 2122.799 379.92 2121.686 379.475 2120.711 378.849 2119.876 378.042 2119.042 377.235 2118.387 376.302 2117.914 375.245 2117.441 374.187 2117.205 373.018 2117.205 371.738 2117.205 370.569 2117.441 369.442 2117.914 368.356 2118.387 367.271 2119.042 366.338 2119.876 365.559 2120.711 364.78 2121.686 364.154 2122.799 363.68 2123.912 363.207 2125.109 362.971 2126.389 362.971 Z" fill="#000000" fill-opacity="1" stroke="none"/>
</svg>
