<svg id="引号" xmlns="http://www.w3.org/2000/svg" width="22.576" height="13.413" viewBox="0 0 22.576 13.413">
  <path id="路径_502" data-name="路径 502" d="M2310.6,267.485h6.513a2.6,2.6,0,0,1,2.6,2.6v6.353a.708.708,0,0,1-.708.708h-5.689V280.9h-.253a3.167,3.167,0,0,1-3.167-3.167v-9.538A.708.708,0,0,1,2310.6,267.485Z" transform="translate(-2297.13 -267.485)" fill="#333"/>
  <path id="路径_503" data-name="路径 503" d="M2359.223,268.193a.707.707,0,0,1,.707-.708h6.514a2.6,2.6,0,0,1,2.6,2.6v6.353a.708.708,0,0,1-.708.708h-5.689V280.9h-.252a3.166,3.166,0,0,1-3.166-3.167v-.59h0Z" transform="translate(-2359.223 -267.485)" fill="#333"/>
</svg>
