<?xml version="1.0" standalone="no"?><!DOCTYPE svg PUBLIC "-//W3C//DTD SVG 1.1//EN" "http://www.w3.org/Graphics/SVG/1.1/DTD/svg11.dtd"><svg t="1636605577980" class="icon" viewBox="0 0 1214 1024" version="1.1" xmlns="http://www.w3.org/2000/svg" p-id="6099" width="33.1953125" height="28" xmlns:xlink="http://www.w3.org/1999/xlink"><defs><style type="text/css"></style></defs><path d="M964.352982 196.442274H250.01744A53.575166 53.575166 0 0 0 196.442274 250.01744v339.309382A53.575166 53.575166 0 0 0 250.01744 642.901988h214.300663l117.508196 117.508197a35.716777 35.716777 0 0 0 50.717824 0L750.052319 642.901988h214.300663a53.575166 53.575166 0 0 0 53.575166-53.575166V250.01744A53.575166 53.575166 0 0 0 964.352982 196.442274z" fill="#FFC824" p-id="6100"></path><path d="M607.185211 477.53331a35.716777 35.716777 0 0 1-35.716777-35.716777v-53.575166a35.716777 35.716777 0 1 1 71.433554 0v53.575166a35.716777 35.716777 0 0 1-35.716777 35.716777zM383.955354 477.53331a35.716777 35.716777 0 0 1-35.716777-35.716777v-53.575166a35.716777 35.716777 0 1 1 71.433554 0v53.575166a35.716777 35.716777 0 0 1-35.716777 35.716777zM830.415068 477.53331a35.716777 35.716777 0 0 1-35.716777-35.716777v-53.575166a35.716777 35.716777 0 1 1 71.433554 0v53.575166a35.716777 35.716777 0 0 1-35.716777 35.716777zM361.453784 71.433554h-17.858388a35.716777 35.716777 0 0 1 0-71.433554h17.858388a35.716777 35.716777 0 0 1 0 71.433554z" fill="#6B400D" p-id="6101"></path><path d="M607.185211 1024a107.150331 107.150331 0 0 1-75.719567-31.430764l-153.224974-153.224974H142.867108a142.867108 142.867108 0 0 1-142.867108-142.867108V142.867108a142.867108 142.867108 0 0 1 142.867108-142.867108h53.575166a35.716777 35.716777 0 0 1 0 71.433554H142.867108a71.433554 71.433554 0 0 0-71.433554 71.433554v553.610046a71.433554 71.433554 0 0 0 71.433554 71.433554h250.01744a35.716777 35.716777 0 0 1 25.358912 10.357865l163.582839 163.940007a35.716777 35.716777 0 0 0 50.717824 0l163.582839-163.940007a35.716777 35.716777 0 0 1 25.358912-10.357865h250.01744a71.433554 71.433554 0 0 0 71.433554-71.433554V142.867108a71.433554 71.433554 0 0 0-71.433554-71.433554H535.751657a35.716777 35.716777 0 0 1 0-71.433554h535.751657a142.867108 142.867108 0 0 1 142.867108 142.867108v553.610046a142.867108 142.867108 0 0 1-142.867108 142.867108h-235.373562l-153.224973 153.224974a107.150331 107.150331 0 0 1-75.719568 31.430764z" fill="#6B400D" p-id="6102"></path></svg>
